<svg xmlns="http://www.w3.org/2000/svg" width="486" height="564" viewBox="0 0 486 564" fill="none">
<defs>
  <linearGradient id="gradient" x1="0%" y1="0%" x2="100%" y2="0%">
    <stop offset="0%" style="stop-color:#00C6FF; stop-opacity:1" />
    <stop offset="100%" style="stop-color:#0072FF; stop-opacity:1" />
  </linearGradient>
</defs><path d="M192.585 46.2003L51.9104 127.678C38.5615 135.41 27.5987 146.667 20.2238 160.217C13.5149 172.542 10 186.352 10 200.385V355V373.313C10 385.22 13.192 396.909 19.2435 407.163C24.9866 416.894 33.1114 425.004 42.8531 430.73L207.5 527.5C228.013 541.678 255.112 541.861 275.814 527.961L276.5 527.5L422.712 439.773C426.898 437.261 430.895 434.446 434.67 431.35L444.454 423.327C450.788 418.134 456.37 412.088 461.041 405.361L461.583 404.581C464.851 399.874 467.603 394.829 469.791 389.532C473.888 379.613 475.942 368.969 475.829 358.237L474 184.5C473.059 164.745 462.587 146.676 445.913 136.04L443.5 134.5L293.265 46.4573C262.199 28.2514 223.744 28.1532 192.585 46.2003Z" stroke="url(#gradient)" stroke-width="20" />
<path d="M131.5 387.5L129.509 148.522C129.504 147.959 129.959 147.5 130.522 147.5V147.5H275.509C279.161 147.5 282.805 147.853 286.389 148.554L295.109 150.259C336.5 158.353 351.602 209.722 321.178 238.929L319.111 240.913C318.704 241.304 318.27 241.665 317.812 241.994L300.905 254.132C300.109 254.704 299 254.135 299 253.155V253.155C299 252.338 299.797 251.759 300.574 252.011L317.5 257.5L324.11 260.218C372.722 280.208 386.451 342.569 350.729 381.125V381.125C337.434 395.476 319.078 404.094 299.544 405.157L270.25 406.75H220.5L213.499 406.925C211.831 406.967 210.5 408.331 210.5 410V410V455.5V315.5V315C210.5 312.791 212.291 311 214.5 311V311H304.5" stroke="url(#gradient)" stroke-width="37" />
<path d="M186 200H226H270V200C271.657 200 273 201.343 273 203V209.595C273 212.5 272.399 215.374 271.234 218.036V218.036C270.09 220.651 268.426 223.007 266.344 224.959L265.083 226.141C262.711 228.365 259.987 230.181 257.021 231.516L255.992 231.979C253.011 233.32 249.862 234.252 246.631 234.749L243.18 235.28C240.065 235.759 236.917 236 233.764 236H226V255H186V200Z" fill="url(#gradient)" />
<rect x="8" y="113" width="60" height="60" rx="30" fill="url(#gradient)" />
<rect x="213" width="60" height="60" rx="30" fill="url(#gradient)" />
<rect x="421" y="386" width="60" height="60" rx="30" fill="url(#gradient)" />
<rect x="213" y="504" width="60" height="60" rx="30" fill="url(#gradient)" />
</svg>